<svg width="26" height="26" viewBox="0 0 26 26" fill="none" xmlns="http://www.w3.org/2000/svg">
<path fill-rule="evenodd" clip-rule="evenodd" d="M13 3C10.3478 3 7.8043 4.05357 5.92893 5.92893C4.05357 7.8043 3 10.3478 3 13V15.5H5.5C6.16304 15.5 6.79893 15.7634 7.26777 16.2322C7.73661 16.7011 8 17.337 8 18V21.75C8 22.7446 7.60491 23.6984 6.90165 24.4017C6.19839 25.1049 5.24456 25.5 4.25 25.5C3.25544 25.5 2.30161 25.1049 1.59835 24.4017C0.895088 23.6984 0.5 22.7446 0.5 21.75V13C0.5 6.09625 6.09625 0.5 13 0.5C19.9037 0.5 25.5 6.09625 25.5 13V21.75C25.5 22.7446 25.1049 23.6984 24.4017 24.4017C23.6984 25.1049 22.7446 25.5 21.75 25.5C20.7554 25.5 19.8016 25.1049 19.0983 24.4017C18.3951 23.6984 18 22.7446 18 21.75V18C18 17.337 18.2634 16.7011 18.7322 16.2322C19.2011 15.7634 19.837 15.5 20.5 15.5H23V13C23 10.3478 21.9464 7.8043 20.0711 5.92893C18.1957 4.05357 15.6522 3 13 3Z" fill="#403D39"/>
</svg>
