<svg width="20" height="17" viewBox="0 0 20 17" fill="none" xmlns="http://www.w3.org/2000/svg">
<path fill-rule="evenodd" clip-rule="evenodd" d="M16.9775 3.00686C15.5996 1.66438 13.355 1.66438 11.9771 3.00686L10 4.93305L8.02295 3.00686C6.64502 1.66438 4.40043 1.66438 3.02251 3.00686C1.65916 4.33513 1.65916 6.47761 3.02251 7.80588L10 14.6039L16.9775 7.80588C18.3408 6.47761 18.3408 4.33513 16.9775 3.00686ZM10.5814 1.57434C12.7359 -0.524778 16.2186 -0.524778 18.3732 1.57434C20.5423 3.68765 20.5423 7.12509 18.3732 9.2384L10.6978 16.7163C10.3095 17.0946 9.69048 17.0946 9.30217 16.7163L1.62684 9.2384C-0.542281 7.12509 -0.542281 3.68765 1.62684 1.57434C3.78139 -0.524778 7.26407 -0.524778 9.41861 1.57434L10 2.14077L10.5814 1.57434Z" fill="#000814"/>
</svg>
