<svg width="73" height="72" viewBox="0 0 73 72" fill="none" xmlns="http://www.w3.org/2000/svg">
<g filter="url(#filter0_dd_5203_7185)">
<circle cx="36.5" cy="32" r="30" fill="url(#paint0_linear_5203_7185)"/>
<path fill-rule="evenodd" clip-rule="evenodd" d="M34.0242 25.5708C33.5093 25.2619 32.8681 25.2538 32.3455 25.5496C31.823 25.8455 31.5 26.3995 31.5 27V37C31.5 37.6004 31.823 38.1545 32.3455 38.4503C32.8681 38.7462 33.5093 38.7381 34.0242 38.4291L42.3575 33.4291C42.8595 33.1279 43.1667 32.5854 43.1667 32C43.1667 31.4145 42.8595 30.872 42.3575 30.5708L34.0242 25.5708ZM38.2606 32L34.8334 34.0563V29.9436L38.2606 32Z" fill="white"/>
<path fill-rule="evenodd" clip-rule="evenodd" d="M36.5 15.3333C27.2953 15.3333 19.8334 22.7952 19.8334 32C19.8334 41.2047 27.2953 48.6666 36.5 48.6666C45.7048 48.6666 53.1667 41.2047 53.1667 32C53.1667 22.7952 45.7048 15.3333 36.5 15.3333ZM23.1667 32C23.1667 24.6362 29.1362 18.6666 36.5 18.6666C43.8638 18.6666 49.8334 24.6362 49.8334 32C49.8334 39.3638 43.8638 45.3333 36.5 45.3333C29.1362 45.3333 23.1667 39.3638 23.1667 32Z" fill="white"/>
</g>
<defs>
<filter id="filter0_dd_5203_7185" x="0.5" y="0" width="72" height="72" filterUnits="userSpaceOnUse" color-interpolation-filters="sRGB">
<feFlood flood-opacity="0" result="BackgroundImageFix"/>
<feColorMatrix in="SourceAlpha" type="matrix" values="0 0 0 0 0 0 0 0 0 0 0 0 0 0 0 0 0 0 127 0" result="hardAlpha"/>
<feMorphology radius="2" operator="erode" in="SourceAlpha" result="effect1_dropShadow_5203_7185"/>
<feOffset dy="2"/>
<feGaussianBlur stdDeviation="2"/>
<feComposite in2="hardAlpha" operator="out"/>
<feColorMatrix type="matrix" values="0 0 0 0 0 0 0 0 0 0 0 0 0 0 0 0 0 0 0.06 0"/>
<feBlend mode="normal" in2="BackgroundImageFix" result="effect1_dropShadow_5203_7185"/>
<feColorMatrix in="SourceAlpha" type="matrix" values="0 0 0 0 0 0 0 0 0 0 0 0 0 0 0 0 0 0 127 0" result="hardAlpha"/>
<feMorphology radius="2" operator="erode" in="SourceAlpha" result="effect2_dropShadow_5203_7185"/>
<feOffset dy="4"/>
<feGaussianBlur stdDeviation="4"/>
<feComposite in2="hardAlpha" operator="out"/>
<feColorMatrix type="matrix" values="0 0 0 0 0 0 0 0 0 0 0 0 0 0 0 0 0 0 0.1 0"/>
<feBlend mode="normal" in2="effect1_dropShadow_5203_7185" result="effect2_dropShadow_5203_7185"/>
<feBlend mode="normal" in="SourceGraphic" in2="effect2_dropShadow_5203_7185" result="shape"/>
</filter>
<linearGradient id="paint0_linear_5203_7185" x1="6.5" y1="2" x2="113.336" y2="96.0644" gradientUnits="userSpaceOnUse">
<stop stop-color="#FFE500"/>
<stop offset="0.0998634" stop-color="#FF9452"/>
<stop offset="0.20103" stop-color="#FF6F7E"/>
<stop offset="0.291745" stop-color="#F63FB8"/>
<stop offset="0.427243" stop-color="#C037EB"/>
<stop offset="0.541668" stop-color="#8A46FF"/>
<stop offset="0.654058" stop-color="#4558D8"/>
<stop offset="0.760167" stop-color="#4829CC"/>
<stop offset="1" stop-color="#2958A6"/>
</linearGradient>
</defs>
</svg>
