<svg width="21" height="25" viewBox="0 0 21 25" fill="none" xmlns="http://www.w3.org/2000/svg">
<path d="M10.25 4.24998V0.762477C10.25 0.199977 9.57504 -0.0750229 9.18753 0.324977L4.43754 5.06248C4.18754 5.31248 4.18754 5.69998 4.43754 5.94998L9.17504 10.6875C9.57504 11.075 10.25 10.8 10.25 10.2375V6.74998C14.9125 6.74998 18.6 11.025 17.575 15.8625C16.9875 18.7 14.6875 20.9875 11.8625 21.575C7.40003 22.5125 3.42503 19.45 2.82503 15.3125C2.78047 15.0187 2.63269 14.7503 2.4082 14.5556C2.18371 14.3609 1.89719 14.2526 1.60003 14.25C0.850035 14.25 0.250035 14.9125 0.350035 15.6625C1.12503 21.15 6.35003 25.2125 12.2625 24.0625C16.1625 23.3 19.3 20.1625 20.0625 16.2625C21.3 9.84998 16.425 4.24998 10.25 4.24998Z" fill="#403D39"/>
</svg>
